<?xml version="1.0" encoding="utf-8"?>
<!-- Generator: Adobe Illustrator 22.0.1, SVG Export Plug-In . SVG Version: 6.00 Build 0)  -->
<svg version="1.1" id="Calque_1" xmlns="http://www.w3.org/2000/svg" xmlns:xlink="http://www.w3.org/1999/xlink" x="0px" y="0px"
	 viewBox="0 0 400 400" style="enable-background:new 0 0 400 400;" xml:space="preserve">
<style type="text/css">
	.st0{fill:#E0E5FF;}
	.st1{fill:none;stroke:#000000;stroke-width:7;stroke-miterlimit:10;}
	.st2{fill:#FFFFFF;stroke:#000000;stroke-width:7;stroke-miterlimit:10;}
</style>
<g>
	<path class="st0" d="M347.5,200.9c0,0-29.5-27.3-76.5-42.6c6.2-8.6,9.8-18.5,9.8-29.2c0-12.1-4.6-23.3-12.5-32.6
		c1.1-0.5,2.1-1.1,3.1-1.7c16.6-9.6,24.9-26.2,18.6-37.2c-6.3-10.9-24.9-12.1-41.5-2.5c-8.4,4.9-14.7,11.6-18,18.4
		c-7.3-2-15.2-3-23.4-3c-10.2,0-19.8,1.6-28.6,4.6c-0.6-4.6-2-9.4-4.2-14.2c-8-17.4-23.8-27.2-35.3-21.9s-14.3,23.7-6.2,41.1
		c3.3,7,7.8,12.8,12.8,16.9c-7.6,9.2-12,20.2-12,32c0,10.6,3.6,20.6,9.8,29.2c-47,15.2-76.5,42.6-76.5,42.6
		c-33.8,28.5,0,51.5,10.8,48.7c11.4-3,54.2-25.8,49.6-3.8c-4.6,22-5.7,44.6-5.7,44.6c-15.8,4.4-23.3,27.2-16.8,50.9
		c6.6,23.7,24.7,39.4,40.5,35.1c9.2-2.5,15.5-11.3,18-22.8c0,0,45.8,24.1,87.8,0c2.5,11.5,8.8,20.2,18,22.8
		c15.8,4.4,34-11.3,40.5-35.1c6.6-23.7-0.9-46.5-16.8-50.9c0,0-1.1-22.6-5.7-44.6c-4.6-22,38.2,0.8,49.6,3.8
		C347.5,252.4,381.3,229.4,347.5,200.9z"/>
	<path class="st1" d="M164.2,60.9c-0.6-4.6-2-9.4-4.2-14.2c-8-17.4-23.8-27.2-35.3-21.9s-14.3,23.7-6.2,41.1
		c3.3,7,7.8,12.8,12.8,16.9"/>
	<path class="st1" d="M253.9,82.2c1.1-0.5,2.1-1.1,3.1-1.7c16.6-9.6,24.9-26.2,18.6-37.2c-6.3-10.9-24.9-12.1-41.5-2.5
		c-8.4,4.9-14.7,11.6-18,18.4"/>
	<path class="st1" d="M129,144c-47,15.2-76.5,42.5-76.5,42.5c-33.8,28.5,0,51.5,10.8,48.7c11.4-3,54.2-25.8,49.6-3.8
		c-4.6,22-5.7,44.6-5.7,44.6"/>
	<path class="st1" d="M256.6,144c47,15.2,76.5,42.5,76.5,42.5c33.8,28.5,0,51.5-10.8,48.7c-11.4-3-54.3-25.8-49.6-3.8
		c4.6,22,5.7,44.6,5.7,44.6"/>
	
		<ellipse transform="matrix(0.9639 -0.2664 0.2664 0.9639 -80.6621 43.2305)" class="st1" cx="119" cy="318.9" rx="29.7" ry="44.6"/>
	<ellipse class="st1" cx="192.8" cy="114.8" rx="73.6" ry="58.5"/>
	<circle cx="174.6" cy="99.9" r="10.9"/>
	<circle cx="211" cy="99.9" r="10.9"/>
	
		<ellipse transform="matrix(0.2664 -0.9639 0.9639 0.2664 -111.8116 490.8863)" class="st1" cx="266.6" cy="318.9" rx="44.6" ry="29.7"/>
	<path class="st2" d="M148.9,339.1c0,0,45.8,24.1,87.8,0"/>
	<ellipse class="st1" cx="192.8" cy="245.4" rx="38.4" ry="51.5"/>
	<ellipse class="st1" cx="192.8" cy="135.1" rx="27.8" ry="16.4"/>
	<path class="st1" d="M192.8,150.4v-14.3c0,0,3.5-3.1,13.6,0"/>
	<path class="st1" d="M192.8,150.4v-14.3c0,0-3.5-3.1-13.6,0"/>
</g>
</svg>
