<?xml version="1.0" encoding="utf-8"?>
<!-- Generator: Adobe Illustrator 22.0.1, SVG Export Plug-In . SVG Version: 6.00 Build 0)  -->
<svg version="1.1" id="Calque_1" xmlns="http://www.w3.org/2000/svg" xmlns:xlink="http://www.w3.org/1999/xlink" x="0px" y="0px"
	 viewBox="0 0 400 400" style="enable-background:new 0 0 400 400;" xml:space="preserve">
<style type="text/css">
	.st0{fill:#FFFFFF;}
	.st1{fill:#FFFF92;}
	.st2{fill:#1D1D1B;}
</style>
<g>
	<path class="st0" d="M272.3,280.1c0,0-9.1-22.5-30.8-42.8c5.6-3.1,10.1-7.6,12.8-13.4c3.1-6.6,3.4-13.8,1.5-20.9
		c0.7,0,1.4,0,2.1-0.1c11.5-1,20.3-7.9,19.6-15.5c-0.6-7.6-10.5-12.9-21.9-12c-5.8,0.5-11,2.5-14.5,5.4c-3.5-2.9-7.5-5.5-11.9-7.6
		c-5.5-2.6-11.2-4.2-16.8-4.8c0.8-2.7,1.3-5.6,1.4-8.8c0.1-11.5-6-20.9-13.6-20.9c-7.6,0-13.8,9.3-13.9,20.8c0,4.7,1,9,2.6,12.5
		c-6.5,3.1-11.7,7.9-14.7,14.4c-2.7,5.8-3.3,12.1-2.1,18.4c-29.5-3.7-52.6,3.6-52.6,3.6c-25.7,6.9-13.2,28.1-6.6,29.3
		c7,1.3,36.2-0.2,28,10.6c-8.2,10.8-14.5,22.8-14.5,22.8c-9.7-1.7-19.7,8.8-22.2,23.4c-2.5,14.6,3.4,27.8,13.1,29.5
		c5.6,1,11.3-2.2,15.6-7.8c0,0,18.7,24.9,47.9,22.5c-1.6,6.9-0.4,13.3,4,17c7.5,6.4,21.4,2.5,31-8.7c9.6-11.2,11.4-25.6,3.9-32
		c0,0,5.2-12.6,8.3-25.8s20.6,10.2,26.1,14.8C259.1,308.1,283.4,304.2,272.3,280.1z"/>
	<path d="M182,161.7c-1.9-4-3-8.8-2.9-13.8c0-6.2,1.7-12,4.6-16.4c3.2-4.8,7.6-7.4,12.3-7.4c9.4,0.1,16.7,10.6,16.7,24
		c0,3.4-0.5,6.7-1.5,9.7l-5.8-1.8c0.8-2.5,1.2-5.1,1.2-7.9c0.1-9.7-4.8-17.9-10.6-17.9c-2.6,0-5.2,1.7-7.2,4.7
		c-2.3,3.4-3.6,8.1-3.6,13.1c0,4.1,0.8,7.9,2.3,11.1L182,161.7z"/>
	<path d="M251.8,194.5l-0.1-6.1c0.7,0,1.3,0,1.9-0.1c9.6-0.8,17.4-6.4,16.9-12.2c-0.5-5.8-9-10-18.7-9.2c-5,0.4-9.7,2.2-12.9,4.7
		l-3.8-4.7c4.2-3.4,9.9-5.6,16.2-6.1c13.3-1.1,24.4,5.3,25.2,14.7c0.8,9.4-9,17.6-22.4,18.8C253.4,194.4,252.7,194.5,251.8,194.5z"
		/>
	<path d="M124.8,260.8l-5.4-2.8c0.3-0.5,6.6-12.3,14.8-23.2c0.7-0.9,0.8-1.5,0.8-1.6c0,0,0,0,0,0c0,0-0.7-1.3-6.3-2.3
		c-4.1-0.7-9.1-1-13.2-1.3c-3.2-0.2-5.7-0.3-7.4-0.6c-5-0.9-11.1-8.3-11.4-16.5c-0.2-5.2,1.8-14.4,17.7-18.7
		c1.7-0.5,24.5-7.4,53.8-3.7l-0.8,6c-28.4-3.6-51,3.4-51.3,3.5l-0.1,0c-6.2,1.7-13.6,5.2-13.2,12.6c0.2,5.6,4.6,10.4,6.4,10.7
		c1.3,0.2,3.9,0.4,6.7,0.6c12.4,0.7,22.1,1.7,24.7,7.1c0.8,1.6,1.1,4.3-1.5,7.8C131.2,248.9,124.9,260.7,124.8,260.8z"/>
	<path d="M212.7,302.1c0.1-0.1,5.1-12.5,8.1-25.3c1-4.2,3.3-5.6,5-6.1c5.8-1.5,12.7,5.3,21.2,14.4c1.9,2,3.7,3.9,4.7,4.8
		c1.4,1.2,7.9,1.5,12.4-1.9c5.9-4.5,3.9-12.4,1.2-18.2l-0.1-0.1c-0.1-0.2-9.1-22.1-30.1-41.7l4.1-4.4c21.6,20.2,30.8,42.1,31.5,43.8
		c6.9,14.9,1,22.4-3.1,25.5c-6.5,5-16.1,5-19.9,1.7c-1.3-1.1-3.1-3-5.2-5.3c-2.8-3-6.2-6.7-9.4-9.3c-4.4-3.7-5.8-3.4-5.8-3.4
		c-0.1,0.1-0.4,0.5-0.7,1.6c-3.1,13.3-8.2,25.7-8.4,26.2L212.7,302.1z"/>
	<path d="M108.6,314c-4-1.9-7.2-5.4-9.4-10.4c-2.7-6.1-3.5-13.7-2.2-21.3c2.8-16.5,14.1-27.9,25.7-25.9c5.7,1,10.5,5.1,13.4,11.6
		c2.7,6.1,3.5,13.7,2.2,21.3l0,0c-2.8,16.5-14.1,27.9-25.7,25.9C111.2,315.1,109.9,314.6,108.6,314z M124,263.1
		c-0.8-0.4-1.5-0.6-2.4-0.7c-7.9-1.4-16.5,8.2-18.6,21c-1.1,6.5-0.5,12.8,1.7,17.8c2,4.6,5.2,7.5,8.9,8.1c7.9,1.4,16.5-8.2,18.6-21
		l0,0c1.1-6.5,0.5-12.8-1.7-17.8C128.9,266.9,126.7,264.4,124,263.1z"/>
	<path d="M193.8,228.1c-23.6-11.1-35.6-35.6-26.6-54.7c9-19.1,35.5-25.6,59.1-14.5s35.6,35.6,26.6,54.7S217.4,239.2,193.8,228.1z
		 M223.7,164.4c-20.6-9.7-43.5-4.5-51,11.6s3.1,37,23.7,46.7c20.6,9.7,43.5,4.5,51-11.6S244.3,174.1,223.7,164.4z"/>
	<circle cx="204" cy="180.8" r="6.5"/>
	<circle cx="223.8" cy="190.1" r="6.5"/>
	<path d="M182.1,348.5c-1.3-0.6-2.4-1.3-3.5-2.2c-4.4-3.8-6.4-9.8-5.5-16.9c0.8-6.6,4-13.5,9.1-19.4l0,0
		c5.1-5.9,11.4-10.1,17.8-11.9c6.9-1.9,13.1-0.9,17.5,2.9c4.4,3.8,6.4,9.8,5.5,16.9c-0.8,6.6-4,13.5-9.1,19.4
		c-5.1,5.9-11.4,10.1-17.8,11.9C190.9,350.6,186,350.4,182.1,348.5z M211.4,304.2c-2.7-1.2-6.1-1.4-9.8-0.3
		c-5.3,1.5-10.6,5.1-14.8,10l0,0c-4.3,5-7,10.7-7.7,16.2c-0.6,5,0.6,9.1,3.4,11.5c2.8,2.4,7.1,3,11.9,1.6c5.3-1.5,10.6-5.1,14.8-10
		s7-10.7,7.7-16.2c0.6-5-0.6-9.1-3.4-11.5C212.9,305,212.2,304.6,211.4,304.2z"/>
	<path d="M162.2,295.5c-13-6.1-17.2-24.9-9.2-41.9s25.1-25.8,38.1-19.7c13,6.1,17.2,24.9,9.2,41.9
		C192.3,292.8,175.2,301.6,162.2,295.5z M188.5,239.4c-10-4.7-23.5,2.8-30.1,16.8c-6.6,13.9-3.7,29.1,6.3,33.8
		c10,4.7,23.5-2.8,30.1-16.8C201.4,259.3,198.5,244.1,188.5,239.4z"/>
	<path d="M199.4,216.3c-10-4.7-15.5-13.5-12.4-20.1c3.1-6.6,13.4-8,23.4-3.3c10,4.7,15.5,13.5,12.4,20.1
		C219.7,219.6,209.4,221,199.4,216.3z M207.8,198.4c-7.1-3.3-13.9-2.6-15.3,0.4s2.4,8.7,9.5,12c7.1,3.3,13.9,2.6,15.3-0.4
		C218.7,207.5,214.9,201.8,207.8,198.4z"/>
	<path d="M203.7,214.2l-5.5-2.6l4.2-9l1.3-0.4c1-0.3,4.8-0.8,10.3,4.1l-4.1,4.5c-1.6-1.4-2.8-2.1-3.6-2.4L203.7,214.2z"/>
	<path d="M203.7,214.2l-5.5-2.6l2.7-5.8c-0.8-0.4-2.1-0.9-4.1-1.2l0.9-6c7.4,1.1,9.3,4.3,9.8,5.3l0.6,1.3L203.7,214.2z"/>
	<path d="M156.4,316.2c-14.2-6.6-23.4-18.2-24-18.9l4.4-3.4c0.2,0.3,19.9,24.7,44.4,21l0.8,5.5C172.5,321.8,163.8,319.7,156.4,316.2
		z"/>
</g>
<g>
	<path class="st1" d="M372.4,162.8C372.4,162.8,372.4,162.8,372.4,162.8c-0.2-0.2-0.3-0.4-0.5-0.6c0,0,0,0,0,0
		c-12-14.2-26.7-30.9-23.1-50.6c3.6-19.7,23.1-30.2,39.4-39.3c0,0,0,0,0,0c0.2-0.1,0.5-0.3,0.7-0.4c0,0,0,0,0,0
		c2.5-1.5,4.4-4.1,5-7.3c0.9-5.2-2.1-10.2-6.9-11.9c-0.4-0.1-0.8-0.3-1.2-0.4c-2.2-0.6-12.5-2.6-14.7-3c-37.4-6.9-72.9,14-79.9,51.3
		c0,0.2-0.1,0.4-0.1,0.5c0,0.2-0.1,0.4-0.1,0.5c-6.5,37.5,19.5,69.4,56.9,76c2.3,0.4,12.6,2.2,14.9,2.3c0.4,0.1,0.8,0.1,1.3,0.1
		c5.1,0.1,9.7-3.6,10.6-8.8C375.1,168.2,374.2,165.1,372.4,162.8z"/>
	<path class="st2" d="M340.5,170.5c-18.9-3.4-35.3-13.1-46.2-27.4c-11.2-14.7-15.7-32.9-12.5-51.5c0-0.1,0-0.2,0.1-0.3l0-0.2l0-0.2
		c0-0.1,0-0.2,0.1-0.3c3.5-18.5,14-34.1,29.7-43.9c15.2-9.5,34-12.9,52.9-9.4c0.1,0,0.1,0,0.2,0c1.5,0.3,12.3,2.3,14.9,3.1
		c0.5,0.1,1,0.3,1.4,0.4c6.1,2.2,9.6,8.3,8.5,14.7c-0.6,3.3-2.5,6.3-5.2,8.3l-0.3,1.4l-1.6-0.3l-1,0.6c-15.8,8.8-33.8,18.8-37.1,37
		c-3.3,18.2,10,33.8,21.8,47.6l0.8,0.9l1.6,0.3l-0.2,1.4c1.9,2.8,2.6,6.2,2,9.6c-1.1,6.3-6.7,10.9-13.1,10.8c-0.5,0-1,0-1.5-0.1
		c-2.7-0.2-13.6-2.1-15-2.4C340.7,170.6,340.6,170.6,340.5,170.5z M363.7,42.1c-17.7-3.2-35.2-0.1-49.4,8.8
		c-14.5,9-24.2,23.5-27.5,40.6c0,0.1,0,0.2,0,0.3l0,0.3l0,0.3c0,0.1,0,0.2,0,0.3c-3,17.2,1.1,34.1,11.5,47.6
		c10.2,13.3,25.5,22.3,43.2,25.5c0.1,0,0.1,0,0.2,0c2.7,0.5,12.6,2.1,14.6,2.3l0.1,0c0.3,0,0.6,0.1,1,0.1c4,0.1,7.5-2.8,8.2-6.7
		c0.4-2.3-0.2-4.7-1.6-6.6c-0.1-0.2-0.3-0.3-0.4-0.5l-0.9-1c-11.8-13.9-26.6-31.3-22.9-51.7c3.7-20.5,23.6-31.5,39.5-40.4l1.1-0.6
		c0.2-0.1,0.4-0.2,0.6-0.4c2-1.2,3.4-3.2,3.8-5.6c0.7-4-1.5-7.8-5.3-9.2c-0.3-0.1-0.6-0.2-0.9-0.3l-0.1,0c-1.9-0.6-11.8-2.5-14.5-3
		C363.9,42.1,363.8,42.1,363.7,42.1z"/>
	<circle cx="318.1" cy="63.9" r="2.7"/>
	<circle cx="309.5" cy="111.7" r="8.2"/>
	<circle cx="362.4" cy="63.6" r="8.2"/>
	<circle cx="348.4" cy="141.2" r="5.8"/>
</g>
<g>
	<path class="st1" d="M53.6,79.4c-0.5-1.1-1.6-1.7-2.8-1.8l-11.7-0.2l-6.3-9.7c-0.7-1-1.9-1.6-3.1-1.4c-1.2,0.2-2.3,1-2.7,2.2
		l-3.7,11L12,82.6c-1.2,0.3-2,1.3-2.3,2.4c-0.2,1.2,0.2,2.3,1.1,3.1l9.5,7.3l-0.5,11.9c0,1.2,0.6,2.3,1.7,2.9
		c0.6,0.3,1.3,0.4,1.9,0.3c0.5-0.1,1-0.3,1.5-0.6l9.3-6.7l10.7,4.1c0.5,0.2,1.1,0.3,1.6,0.2c0.6-0.1,1.3-0.4,1.8-0.8
		c0.9-0.8,1.3-2.1,0.9-3.2l-3.4-11.4l7.3-9.5C54,81.7,54.1,80.5,53.6,79.4z"/>
	<path class="st2" d="M43.6,106.2c-0.7,0.1-1.5,0-2.2-0.3l-10.1-3.9l-8.8,6.3c-0.6,0.4-1.3,0.7-2,0.8c-0.9,0.1-1.8,0-2.6-0.5
		c-1.5-0.8-2.4-2.3-2.3-3.9L16,93.5l-9-7c-1.3-1-1.9-2.6-1.6-4.2c0.3-1.6,1.5-2.9,3.1-3.3l10.7-3l3.5-10.4c0.5-1.6,1.9-2.7,3.6-2.9
		c1.7-0.2,3.3,0.5,4.2,1.9l6,9.2L47.6,74c1.6,0,3.1,1,3.8,2.4l0,0c0.7,1.5,0.5,3.2-0.5,4.5l-7,9l3.3,10.8c0.5,1.6,0,3.3-1.3,4.4
		C45.3,105.8,44.5,106.1,43.6,106.2z M31,99.5l11.3,4.3c0.7,0.3,1.6,0.1,2.2-0.4c0.6-0.5,0.8-1.3,0.6-2l-3.6-12l7.7-9.9
		c0.5-0.6,0.5-1.4,0.2-2c-0.3-0.7-1-1.1-1.8-1.1l-12.3-0.3l-6.6-10.2c-0.4-0.6-1.2-1-2-0.9c-0.8,0.1-1.5,0.6-1.7,1.4L21,77.9
		L9.2,81.3c-0.7,0.2-1.3,0.8-1.5,1.5c-0.1,0.7,0.1,1.4,0.7,1.9l10,7.7l-0.5,12.5c0,0.8,0.4,1.4,1.1,1.8c0.4,0.2,0.8,0.3,1.2,0.2
		c0.4,0,0.7-0.2,1-0.4L31,99.5z"/>
</g>
<g>
	<path class="st1" d="M232.5,68.4c-0.2-1.1-1-1.9-2.1-2.2l-10.4-2.9l-3.4-10.1c-0.4-1.1-1.3-1.8-2.5-2c-1.1-0.1-2.3,0.4-2.9,1.3
		l-5.8,9l-10.8,0.3c-1.1,0-2.1,0.7-2.6,1.6c-0.5,1-0.3,2.1,0.3,3l6.8,8.7L196,85.7c-0.3,1.1,0,2.2,0.9,3c0.5,0.4,1,0.7,1.6,0.7
		c0.5,0.1,1,0,1.5-0.2l9.9-3.8l8.6,6.1c0.4,0.3,0.9,0.5,1.4,0.5c0.6,0.1,1.2,0,1.8-0.3c1-0.5,1.6-1.5,1.6-2.7l-0.5-11l8.7-6.8
		C232.3,70.6,232.7,69.5,232.5,68.4z"/>
	<path class="st2" d="M217.4,90.2c-0.7-0.1-1.3-0.3-1.9-0.7l-8.2-5.8l-9.3,3.6c-0.6,0.2-1.3,0.3-2,0.3c-0.8-0.1-1.6-0.4-2.2-1
		c-1.2-1-1.6-2.6-1.2-4.1l3-10l-6.5-8.3c-0.9-1.2-1.1-2.8-0.4-4.1c0.7-1.3,2-2.2,3.5-2.2l10.2-0.3L208,49c0.8-1.3,2.4-2,3.9-1.8
		c1.5,0.2,2.9,1.2,3.3,2.7l3.3,9.6l9.9,2.7c1.5,0.4,2.6,1.6,2.9,3l0,0c0.3,1.5-0.2,3-1.4,3.9l-8.3,6.5l0.5,10.4
		c0.1,1.5-0.7,2.9-2.1,3.7C219.1,90.1,218.3,90.3,217.4,90.2z M207.7,81.2l9.1,6.4c0.6,0.4,1.4,0.5,2,0.1c0.6-0.3,1-1,1-1.7
		l-0.5-11.5l9.2-7.1c0.5-0.4,0.8-1.1,0.7-1.8c-0.1-0.7-0.7-1.2-1.4-1.4l-11-3l-3.6-10.7c-0.2-0.7-0.8-1.2-1.6-1.3
		c-0.7-0.1-1.5,0.2-1.8,0.8l-6.1,9.5L192.3,60c-0.7,0-1.3,0.4-1.6,1c-0.3,0.6-0.2,1.3,0.2,1.9L198,72l-3.3,11.1
		c-0.2,0.7,0,1.4,0.6,1.8c0.3,0.3,0.7,0.4,1,0.5c0.3,0,0.6,0,0.9-0.1L207.7,81.2z"/>
</g>
<g>
	<path class="st1" d="M43.6,184.4c0-0.6-0.3-1.2-0.9-1.5l-5.3-2.8l-0.7-5.9c-0.1-0.6-0.5-1.2-1.1-1.4c-0.6-0.2-1.3-0.1-1.7,0.4
		l-4.2,4.2l-5.9-1.1c-0.6-0.1-1.2,0.1-1.6,0.6c-0.4,0.5-0.4,1.1-0.2,1.7l2.7,5.6l-3,5.4c-0.3,0.5-0.3,1.2,0.1,1.7
		c0.2,0.3,0.5,0.5,0.8,0.6c0.3,0.1,0.5,0.1,0.8,0.1l5.8-0.9l4,4.4c0.2,0.2,0.4,0.4,0.7,0.5c0.3,0.1,0.7,0.1,1,0
		c0.6-0.2,1.1-0.7,1.2-1.3l1-6.1l5.6-2.7C43.2,185.5,43.6,185,43.6,184.4z"/>
	<path class="st2" d="M32.8,194.4c-0.4-0.1-0.7-0.3-0.9-0.6l-3.8-4.1l-5.5,0.9c-0.4,0.1-0.8,0-1.1-0.1c-0.4-0.2-0.8-0.4-1.1-0.8
		c-0.5-0.7-0.6-1.6-0.2-2.4l2.8-5.1l-2.6-5.3c-0.4-0.8-0.3-1.6,0.2-2.3c0.5-0.7,1.4-1,2.2-0.8l5.6,1.1l4-4c0.6-0.6,1.5-0.8,2.3-0.5
		c0.8,0.3,1.4,1,1.5,1.9l0.6,5.6l5.1,2.7c0.7,0.4,1.2,1.2,1.2,2l0,0c0,0.8-0.5,1.6-1.2,2l-5.3,2.5l-1,5.8c-0.1,0.8-0.8,1.5-1.6,1.7
		C33.7,194.6,33.2,194.6,32.8,194.4z M28.5,188.4l4.2,4.6c0.3,0.3,0.7,0.4,1.1,0.3c0.4-0.1,0.7-0.4,0.7-0.8l1.1-6.4l5.9-2.8
		c0.3-0.2,0.6-0.5,0.6-0.9c0-0.4-0.2-0.7-0.6-0.9l-5.6-3l-0.7-6.3c0-0.4-0.3-0.7-0.7-0.9c-0.4-0.1-0.8,0-1.1,0.2l-4.5,4.5l-6.2-1.2
		c-0.4-0.1-0.8,0.1-1,0.4c-0.2,0.3-0.3,0.7-0.1,1l2.8,5.8l-3.1,5.7c-0.2,0.3-0.2,0.8,0.1,1.1c0.1,0.2,0.3,0.3,0.5,0.4
		c0.2,0.1,0.4,0.1,0.5,0L28.5,188.4z"/>
</g>
<g>
	<path class="st1" d="M348.7,220.8c0-0.6-0.3-1.2-0.9-1.5l-5.3-2.8l-0.7-5.9c-0.1-0.6-0.5-1.2-1.1-1.4c-0.6-0.2-1.3-0.1-1.7,0.4
		l-4.2,4.2l-5.9-1.1c-0.6-0.1-1.2,0.1-1.6,0.6c-0.4,0.5-0.4,1.1-0.2,1.7l2.7,5.6l-3,5.4c-0.3,0.5-0.3,1.2,0.1,1.7
		c0.2,0.3,0.5,0.5,0.8,0.6c0.3,0.1,0.5,0.1,0.8,0.1l5.8-0.9l4,4.4c0.2,0.2,0.4,0.4,0.7,0.5c0.3,0.1,0.7,0.1,1,0
		c0.6-0.2,1.1-0.7,1.2-1.3l1-6.1l5.6-2.7C348.3,222,348.7,221.4,348.7,220.8z"/>
	<path class="st2" d="M337.9,230.9c-0.4-0.1-0.7-0.3-0.9-0.6l-3.8-4.1l-5.5,0.9c-0.4,0.1-0.8,0-1.1-0.1c-0.4-0.2-0.8-0.4-1.1-0.8
		c-0.5-0.7-0.6-1.6-0.2-2.4l2.8-5.1l-2.6-5.3c-0.4-0.8-0.3-1.6,0.2-2.3c0.5-0.7,1.4-1,2.2-0.8l5.6,1.1l4-4c0.6-0.6,1.5-0.8,2.3-0.5
		c0.8,0.3,1.4,1,1.5,1.9l0.6,5.6l5.1,2.7c0.7,0.4,1.2,1.2,1.2,2v0c0,0.8-0.5,1.6-1.2,2l-5.3,2.5l-1,5.8c-0.1,0.8-0.8,1.5-1.6,1.7
		C338.8,231.1,338.3,231,337.9,230.9z M333.6,224.9l4.2,4.6c0.3,0.3,0.7,0.4,1.1,0.3c0.4-0.1,0.7-0.4,0.7-0.8l1.1-6.4l5.9-2.8
		c0.3-0.2,0.6-0.5,0.6-0.9c0-0.4-0.2-0.7-0.6-0.9l-5.6-3l-0.7-6.3c0-0.4-0.3-0.7-0.7-0.9c-0.4-0.1-0.8,0-1.1,0.2l-4.5,4.5l-6.2-1.2
		c-0.4-0.1-0.8,0.1-1,0.4c-0.2,0.3-0.3,0.7-0.1,1l2.8,5.8l-3.1,5.7c-0.2,0.3-0.2,0.8,0.1,1.1c0.1,0.2,0.3,0.3,0.5,0.4
		c0.2,0.1,0.4,0.1,0.5,0L333.6,224.9z"/>
</g>
<g>
	<path class="st1" d="M140.3,130.4c0-0.6-0.3-1.3-0.9-1.6l-5.5-3.2l-0.4-6.3c0-0.7-0.5-1.3-1.1-1.5c-0.6-0.3-1.4-0.1-1.8,0.3
		l-4.7,4.3l-6.2-1.5c-0.6-0.2-1.3,0.1-1.7,0.5c-0.4,0.5-0.5,1.2-0.3,1.8l2.6,6l-3.4,5.6c-0.3,0.6-0.3,1.3,0.1,1.8
		c0.2,0.3,0.5,0.5,0.8,0.7c0.3,0.1,0.6,0.2,0.9,0.1l6.2-0.7l4,4.8c0.2,0.2,0.4,0.4,0.7,0.5c0.3,0.1,0.7,0.2,1.1,0.1
		c0.7-0.1,1.2-0.6,1.3-1.3l1.4-6.4l6-2.6C139.9,131.6,140.3,131,140.3,130.4z"/>
	<path class="st2" d="M128.4,140.6c-0.4-0.2-0.7-0.4-1-0.7l-3.8-4.5l-5.9,0.7c-0.4,0-0.8,0-1.2-0.2c-0.5-0.2-0.8-0.5-1.1-0.9
		c-0.5-0.8-0.5-1.7-0.1-2.5l3.2-5.3l-2.5-5.7c-0.4-0.8-0.2-1.8,0.4-2.4c0.6-0.7,1.5-1,2.4-0.8l5.9,1.4l4.4-4.1
		c0.7-0.6,1.7-0.8,2.5-0.4c0.9,0.3,1.4,1.1,1.5,2.1l0.4,6l5.2,3.1c0.8,0.5,1.2,1.3,1.2,2.2l0,0c0,0.9-0.6,1.7-1.4,2l-5.7,2.4
		l-1.3,6.1c-0.2,0.9-0.9,1.6-1.8,1.8C129.3,140.8,128.8,140.8,128.4,140.6z M124.1,134l4.2,5.1c0.3,0.3,0.7,0.5,1.1,0.4
		c0.4-0.1,0.7-0.4,0.8-0.8l1.5-6.7l6.3-2.7c0.4-0.2,0.6-0.5,0.6-0.9c0-0.4-0.2-0.8-0.6-1l-5.8-3.4l-0.5-6.7c0-0.4-0.3-0.8-0.7-1
		c-0.4-0.2-0.9-0.1-1.2,0.2l-4.9,4.5l-6.6-1.6c-0.4-0.1-0.8,0-1.1,0.3c-0.3,0.3-0.3,0.7-0.2,1.1l2.7,6.3l-3.6,5.9
		c-0.2,0.4-0.2,0.8,0,1.1c0.1,0.2,0.3,0.3,0.5,0.4c0.2,0.1,0.4,0.1,0.6,0.1L124.1,134z"/>
</g>
</svg>
