<?xml version="1.0" encoding="utf-8"?>
<!-- Generator: Adobe Illustrator 22.0.1, SVG Export Plug-In . SVG Version: 6.00 Build 0)  -->
<svg version="1.1" id="Calque_1" xmlns="http://www.w3.org/2000/svg" xmlns:xlink="http://www.w3.org/1999/xlink" x="0px" y="0px"
	 viewBox="0 0 400 400" style="enable-background:new 0 0 400 400;" xml:space="preserve">
<style type="text/css">
	.st0{fill:#F9E0FF;}
</style>
<polygon class="st0" points="111.3,159.4 85.6,378 342.7,378 317,159.4 "/>
<g>
	<path d="M276.1,111.6h-51.4V73c0-28.4-23-51.4-51.4-51.4s-51.4,23-51.4,51.4v38.6H70.4L44.7,330.1h257.1L276.1,111.6z M134.7,73
		c0-21.3,17.3-38.6,38.6-38.6s38.6,17.3,38.6,38.6v38.6h-77.1V73z M73.6,304.4l19.7-167.1h28.6v19.3c0,3.6,2.9,6.4,6.4,6.4
		c3.6,0,6.4-2.9,6.4-6.4v-19.3h77.1v19.3c0,3.6,2.9,6.4,6.4,6.4c3.6,0,6.4-2.9,6.4-6.4v-19.3h28.6l19.7,167.1H73.6z"/>
	<path d="M128.2,200.5c-7.7,0-13.9,6.2-13.9,13.9s6.3,13.9,13.9,13.9c7.7,0,13.9-6.2,13.9-13.9S135.9,200.5,128.2,200.5z"/>
	<circle cx="218.2" cy="214.4" r="13.9"/>
</g>
</svg>
