<?xml version="1.0" encoding="utf-8"?>
<!-- Generator: Adobe Illustrator 22.0.1, SVG Export Plug-In . SVG Version: 6.00 Build 0)  -->
<svg version="1.1" id="Calque_1" xmlns="http://www.w3.org/2000/svg" xmlns:xlink="http://www.w3.org/1999/xlink" x="0px" y="0px"
	 viewBox="0 0 400 400" style="enable-background:new 0 0 400 400;" xml:space="preserve">
<style type="text/css">
	.st0{fill:#83A5EA;}
	.st1{fill:#DB8D8D;}
	.st2{fill:#FFFFFF;}
</style>
<g>
	<g>
		<g>
			<path class="st0" d="M162.7,272c-35.8,7.5-71.6,11.7-107.4,2.9c0-68.9,0-137.8,0-206.7c35.8,8.8,71.6,4.6,107.4-2.9
				C162.7,134.2,162.7,203.1,162.7,272z"/>
			<path class="st1" d="M377.4,263.3c-35.8-17.4-71.6-19-107.4-14.3c0-68.9,0-137.8,0-206.7c35.8-4.6,71.6-3.1,107.4,14.3
				C377.4,125.5,377.4,194.4,377.4,263.3z"/>
			<path class="st2" d="M270,249c-35.8,4.6-71.6,15.5-107.4,23c0-68.9,0-137.8,0-206.7c35.8-7.5,71.6-18.4,107.4-23
				C270,111.2,270,180.1,270,249z"/>
			<path d="M355.9,233.2c-110.9-35.5-221.9,62.5-332.8,8.6c0-72.5,0-145,0-217.4C134.1,78.3,245-19.7,355.9,15.8
				C355.9,88.3,355.9,160.8,355.9,233.2z M33.9,235.9c103.8,41.5,207.5-41.8,311.3-16.4c0-65.3,0-130.6,0-196
				C241.4-1.9,137.6,81.4,33.9,39.9C33.9,105.2,33.9,170.5,33.9,235.9z"/>
		</g>
	</g>
	<path d="M28.5,376L28.5,376c-3,0-5.4-2.4-5.4-5.4V35.1c0-3,2.4-5.4,5.4-5.4h0c3,0,5.4,2.4,5.4,5.4v335.5
		C33.9,373.6,31.5,376,28.5,376z"/>
</g>
</svg>
