<svg xmlns="http://www.w3.org/2000/svg" viewBox="5048.177 712.177 51.847 51.847">
  <defs>
    <style>
      .cls-1 {
        fill: #fff;
      }
    </style>
  </defs>
  <g id="Groupe_318" data-name="Groupe 318" transform="translate(5048.177 712.177)">
    <circle id="Ellipse_243" data-name="Ellipse 243" class="cls-1" cx="22.845" cy="22.845" r="22.845" transform="translate(6.157 6.157)"/>
    <path id="Tracé_109" data-name="Tracé 109" d="M24.54,0a24.54,24.54,0,1,0,24.54,24.54A24.526,24.526,0,0,0,24.54,0Zm0,45.065A20.525,20.525,0,1,1,45.065,24.54,20.527,20.527,0,0,1,24.54,45.065Z"/>
    <path id="Tracé_110" data-name="Tracé 110" d="M42.756,58.4h0a1.565,1.565,0,0,0,.223-.357l1.294-2.231L51.858,42.7a2.229,2.229,0,0,0-.848-3.079h0a2.229,2.229,0,0,0-3.079.848l-5.4,9.37c-.892,1.517-.8,1.562-1.7.045l-5.443-9.37a2.252,2.252,0,0,0-4.194,1.16,2.014,2.014,0,0,0,.312,1.115L39.1,55.906l1.294,2.231a.719.719,0,0,0,.178.312,1.4,1.4,0,0,0,1.115.58A2.353,2.353,0,0,0,42.756,58.4Z" transform="translate(-17.279 -21.773)"/>
  </g>
</svg>
