<?xml version="1.0" encoding="utf-8"?>
<!-- Generator: Adobe Illustrator 22.0.1, SVG Export Plug-In . SVG Version: 6.00 Build 0)  -->
<svg version="1.1" id="Calque_1" xmlns="http://www.w3.org/2000/svg" xmlns:xlink="http://www.w3.org/1999/xlink" x="0px" y="0px"
	 viewBox="0 0 400 400" style="enable-background:new 0 0 400 400;" xml:space="preserve">
<style type="text/css">
	.st0{fill:#9FD6A9;}
</style>
<g>
	<path class="st0" d="M342.9,46.5c-87.3,29.8-139.3,72.8-169.3,118.3c-33.2-33-65.9-53.9-65.9-53.9c-82.1,161,10.7,245.4,55.7,274.9
		c6.7,4.4,14.6,5.9,22.2,4.8C422.8,386.8,342.9,46.5,342.9,46.5z"/>
	<path d="M154.6,366.4c-22.7,0-42.6-15.8-47.6-37.8l0,0c-15.6-69.5-27-239.5,203.6-318.2l6.3-2.2l1.5,6.5
		c0.1,0.5,11.3,48.7,12.9,108.3c2.2,80.6-13.2,142.6-45.6,184.3c-29.8,38.3-73.7,58.1-130.4,59C155.1,366.4,154.8,366.4,154.6,366.4
		z M118.8,325.9c3.7,16.5,18.7,28.3,35.7,28.3c0.2,0,0.4,0,0.6,0c52.8-0.9,93.6-19.1,121-54.4c38.2-49.1,44.5-123.1,43.1-176.5
		c-1.2-45.6-8.2-84.3-11.2-99.2C231.5,51.7,75.4,132.6,118.8,325.9L118.8,325.9z"/>
	<path d="M150.5,366.7c-7.2,0-14.4-2-20.8-6.1l0,0C84.2,330.8-12.6,243.6,72,77.8l3-6l5.6,3.6c1.3,0.8,32,20.6,64.5,52.3
		c44,43,68.6,85.1,73,125.3c4,37.1-9.5,71.4-40.2,102.2C170.5,362.9,160.5,366.7,150.5,366.7z M136.4,350.4
		c10.3,6.7,24.1,5.2,32.9-3.6c28-28.1,40.3-59.1,36.7-92.3c-5.1-46.4-40.4-89.7-69.2-117.8c-23.6-23.1-46.8-40-57.1-47.2
		C52.8,145.3,12.7,269.5,136.4,350.4z"/>
</g>
</svg>
