<?xml version="1.0" encoding="utf-8"?>
<!-- Generator: Adobe Illustrator 22.0.1, SVG Export Plug-In . SVG Version: 6.00 Build 0)  -->
<svg version="1.1" id="Calque_1" xmlns="http://www.w3.org/2000/svg" xmlns:xlink="http://www.w3.org/1999/xlink" x="0px" y="0px"
	 viewBox="0 0 400 400" style="enable-background:new 0 0 400 400;" xml:space="preserve">
<style type="text/css">
	.st0{fill:#F9E0FF;}
</style>
<g>
	<rect x="62.3" y="106.3" class="st0" width="313.7" height="238.3"/>
	<path d="M174.8,62H17.9v3.7v21.2v188.4v24.9h24.9h131.9h131.9h24.9v-24.9V86.9V65.7V62H174.8z M174.8,86.9h116.8l-116.8,82.3
		L58,86.9H174.8z M42.9,106.8l92.9,65.5L42.9,257V106.8z M174.8,275.3h-115l96.9-88.4l18,12.7l0.1,0.1l0.1-0.1l18-12.7l96.9,88.4
		H174.8z M306.7,257l-92.9-84.8l92.9-65.5V257z"/>
</g>
</svg>
