<?xml version="1.0" encoding="utf-8"?>
<!-- Generator: Adobe Illustrator 22.0.1, SVG Export Plug-In . SVG Version: 6.00 Build 0)  -->
<svg version="1.1" id="Calque_2" xmlns="http://www.w3.org/2000/svg" xmlns:xlink="http://www.w3.org/1999/xlink" x="0px" y="0px"
	 viewBox="0 0 833 423.2" style="enable-background:new 0 0 833 423.2;" xml:space="preserve">
<style type="text/css">
	.st0{fill:#FFFFFF;}
	.st1{fill:none;stroke:#000000;stroke-width:8;stroke-miterlimit:10;}
	.st2{fill:#FFFF92;}
	.st3{fill:#1D1D1B;}
</style>
<path class="st0" d="M410.1,355.2v-18.4c0,0-6.8-2.7-27.9-72.1C361.2,195.4,419,194,419,194h110.2c0,0,19,11.6,30.6,5.4
	c12.2,1.4,21.1,20.4,17.7,27.2c-3.4,6.8,0,32,0,32c5,5,9.8,7.7,14.3,8.9v52.3h2.3h0l3.2,15.6l3.2-15.6h0h2.3v-52.1l0,0
	c9.1-2.1,15-9.1,15-9.1V102.9v-3.4h-23.8c-18.4,0-18.4,27.2-18.4,27.2s-42.9,0.7-53.1,6.1c-10.2,5.4-45.6,20.4-121.1,0
	c-15.6-2-42.2-17-72.1-7.5c-15.3,4.9-23.5,16-27.5,27.2h-24.5c-1.8-37.8-11.2-66.7-22.5-66.7c-12.6,0-22.8,35.9-22.8,80.3
	s10.2,80.3,22.8,80.3c11.3,0,20.6-28.8,22.5-66.7h22.1c-1.3,3.3,1.2,12.4,1.4,12.9c0,0,0,0,0,0c0.1,0.8,1.4,19.7,1.4,21.1
	c0,6.1,2,79.6,2,79.6l-7.5,61.9h-21.8v25.8h391.1v-25.8H410.1z"/>
<path class="st1" d="M600.8,86.1v155.8c0,0-18.4,21.8-40.1,0c0,0-3.4-25.2,0-32c3.4-6.8-5.4-25.8-17.7-27.2
	c-11.6,6.1-30.6-5.4-30.6-5.4H402.2c0,0-57.8,1.4-36.7,70.7s27.9,72.1,27.9,72.1v18.4H279.7l7.5-61.9c0,0-2-73.5-2-79.6
	c0-1.3-1.3-20.3-1.4-21.1c0,0,0,0,0,0c-0.1-0.5-2.7-9.6-1.4-12.9c-2.7-11.6,0-44.9,29.9-54.4c29.9-9.5,56.5,5.4,72.1,7.5
	c75.5,20.4,110.9,5.4,121.1,0c10.2-5.4,53.1-6.1,53.1-6.1s0-27.2,18.4-27.2h23.8V86.1z"/>
<rect x="258" y="338.4" class="st1" width="391.1" height="25.8"/>
<polyline class="st1" points="574.9,250.8 574.9,303.1 577.2,303.1 580.4,303.1 583.6,303.1 585.8,303.1 585.8,250.9 "/>
<polygon points="577.2,303.1 580.4,318.7 580.4,303.1 "/>
<polygon points="580.4,303.1 583.6,303.1 580.4,318.7 "/>
<ellipse class="st1" cx="237.9" cy="149.4" rx="22.8" ry="80.3"/>
<line class="st1" x1="282.1" y1="165" x2="260.3" y2="165"/>
<polyline class="st1" points="260.3,134.4 285.2,134.4 285.2,135 "/>
<g>
	<path class="st2" d="M112.3,201.6c-0.8-0.9-2-1.3-3.2-1.1l-11.6,2.6l-8.6-8c-0.9-0.8-2.2-1.1-3.4-0.6c-1.2,0.5-2,1.5-2.1,2.8
		l-0.9,11.7l-10.3,5.8c-1.1,0.6-1.7,1.7-1.7,2.9c0,1.2,0.8,2.2,1.9,2.7l11.1,4.9l2.4,11.8c0.2,1.2,1.2,2.1,2.4,2.4
		c0.7,0.2,1.3,0.1,2-0.1c0.5-0.2,1-0.5,1.3-0.9l7.6-8.8l11.5,1.5c0.6,0.1,1.1,0,1.6-0.2c0.6-0.2,1.2-0.7,1.5-1.2
		c0.7-1,0.7-2.3,0.1-3.4l-6.2-10.4l4.9-11.1C113.3,203.8,113.1,202.5,112.3,201.6z"/>
	<path class="st3" d="M109,230.4c-0.7,0.3-1.5,0.4-2.2,0.3l-10.9-1.4l-7.2,8.3c-0.5,0.6-1.1,1-1.8,1.3c-0.9,0.3-1.8,0.4-2.7,0.2
		c-1.7-0.4-2.9-1.7-3.2-3.3l-2.3-11.2l-10.6-4.7c-1.5-0.7-2.5-2.1-2.6-3.8c-0.1-1.6,0.8-3.2,2.3-4l9.8-5.5l0.9-11.1
		c0.1-1.7,1.3-3.2,2.8-3.8c1.6-0.6,3.4-0.3,4.6,0.9l8.1,7.6l11-2.5c1.6-0.4,3.3,0.2,4.4,1.4l0,0c1.1,1.3,1.3,3,0.6,4.5l-4.7,10.6
		l5.8,9.9c0.9,1.5,0.8,3.2-0.2,4.6C110.6,229.5,109.9,230.1,109,230.4z M95,226.8l12.2,1.5c0.8,0.1,1.6-0.3,2-0.9
		c0.4-0.6,0.5-1.5,0.1-2.1l-6.5-10.9l5.2-11.7c0.3-0.7,0.2-1.5-0.3-2c-0.5-0.6-1.3-0.8-2-0.7l-12.2,2.7l-9-8.5
		c-0.6-0.5-1.4-0.7-2.2-0.4c-0.8,0.3-1.3,1-1.3,1.8l-1,12.3L69,214.1c-0.7,0.4-1.1,1.1-1.1,1.9c0,0.7,0.5,1.4,1.2,1.7l11.7,5.2
		l2.5,12.4c0.2,0.7,0.7,1.3,1.5,1.5c0.4,0.1,0.9,0.1,1.3-0.1c0.3-0.1,0.6-0.3,0.8-0.6L95,226.8z"/>
</g>
<g>
	<path class="st2" d="M766.7,119.5c0-2.2-1.3-4.2-3.3-5.2l-19.3-9.7l-2.8-21.2c-0.3-2.2-1.9-4.1-4-4.8c-2.2-0.7-4.6-0.1-6.1,1.5
		l-14.8,15.4l-21.2-3.7c-2.2-0.4-4.4,0.5-5.7,2.2c-1.3,1.7-1.5,4-0.5,6l10,19.7l-10.2,19.4c-1,2-0.8,4.3,0.6,6.1
		c0.7,1,1.8,1.7,2.9,2.1c0.9,0.3,1.9,0.4,2.9,0.2l20.8-3.7l14.5,15.3c0.7,0.7,1.6,1.3,2.5,1.6c1.1,0.4,2.4,0.4,3.6,0.1
		c2.2-0.6,3.7-2.4,4.1-4.6l3.3-21.7l19.7-9.9C765.5,123.6,766.8,121.6,766.7,119.5z"/>
	<path class="st3" d="M728.9,156.1c-1.3-0.4-2.5-1.2-3.4-2.2l-13.7-14.5l-19.7,3.5c-1.3,0.2-2.7,0.2-4-0.3c-1.6-0.5-2.9-1.5-3.9-2.8
		c-1.9-2.5-2.2-5.7-0.7-8.4l9.7-18.5l-9.5-18.7c-1.4-2.7-1.1-5.9,0.7-8.2c1.8-2.4,4.8-3.5,7.8-3l20.1,3.5l14-14.6
		c2.1-2.2,5.4-3,8.3-2c2.9,1,5.1,3.5,5.5,6.6l2.6,20.1l18.2,9.2c2.7,1.4,4.4,4.1,4.5,7l0,0c0,3-1.6,5.7-4.3,7.1l-18.7,9.4l-3.2,20.6
		c-0.5,3-2.6,5.5-5.6,6.3C732.1,156.7,730.5,156.7,728.9,156.1z M713.3,134.9l15.3,16.1c1,1,2.5,1.5,3.9,1.1
		c1.4-0.4,2.3-1.5,2.6-2.9l3.5-22.8l20.7-10.4c1.2-0.6,2-1.8,2-3.2c0-1.4-0.8-2.6-2.1-3.3l-20.3-10.2l-2.9-22.3
		c-0.2-1.4-1.2-2.6-2.6-3.1c-1.4-0.5-2.9-0.1-3.9,0.9l-15.6,16.2l-22.4-3.9c-1.4-0.2-2.8,0.3-3.6,1.4c-0.8,1.1-0.9,2.5-0.3,3.7
		l10.5,20.7l-10.7,20.4c-0.6,1.2-0.5,2.7,0.4,3.8c0.5,0.6,1.1,1.1,1.9,1.3c0.6,0.2,1.3,0.2,1.9,0.1L713.3,134.9z"/>
</g>
<g>
	<path class="st2" d="M376.3,49.7c-0.1-0.6-0.6-1.2-1.2-1.4l-6.2-1.9l-1.9-6.2c-0.2-0.6-0.8-1.1-1.4-1.2c-0.7-0.1-1.4,0.2-1.7,0.7
		l-3.6,5.3l-6.5,0c-0.7,0-1.3,0.4-1.6,0.9c-0.3,0.6-0.2,1.3,0.1,1.8l4,5.3l-2,6.3c-0.2,0.6,0,1.3,0.5,1.8c0.3,0.3,0.6,0.4,1,0.5
		c0.3,0,0.6,0,0.9-0.1l6-2.1l5.1,3.8c0.2,0.2,0.5,0.3,0.8,0.3c0.4,0.1,0.7,0,1.1-0.2c0.6-0.3,1-0.9,1-1.6l-0.1-6.6l5.4-3.9
		C376.2,51,376.4,50.4,376.3,49.7z"/>
	<path class="st3" d="M366.9,62.6c-0.4-0.1-0.8-0.2-1.1-0.5l-4.8-3.6l-5.7,2c-0.4,0.1-0.8,0.2-1.2,0.1c-0.5-0.1-0.9-0.3-1.3-0.6
		c-0.7-0.6-0.9-1.6-0.6-2.5l1.9-6l-3.8-5.1c-0.5-0.7-0.6-1.7-0.2-2.5c0.4-0.8,1.2-1.3,2.2-1.3l6.2,0l3.4-5c0.5-0.8,1.5-1.2,2.4-1
		c0.9,0.1,1.7,0.8,2,1.7l1.8,5.8l5.9,1.8c0.9,0.3,1.5,1,1.7,1.9l0,0c0.2,0.9-0.2,1.8-0.9,2.3l-5.1,3.8l0.1,6.3
		c0,0.9-0.5,1.8-1.3,2.2C367.9,62.6,367.4,62.6,366.9,62.6z M361.2,57l5.4,4c0.3,0.3,0.8,0.3,1.2,0.1c0.4-0.2,0.6-0.6,0.6-1
		l-0.1-6.9l5.6-4.1c0.3-0.2,0.5-0.6,0.4-1c-0.1-0.4-0.4-0.7-0.8-0.9l-6.5-2l-2-6.5c-0.1-0.4-0.5-0.7-0.9-0.8
		c-0.4-0.1-0.9,0.1-1.1,0.5l-3.8,5.6l-6.8,0c-0.4,0-0.8,0.2-1,0.6c-0.2,0.4-0.2,0.8,0.1,1.1l4.2,5.6l-2.2,6.6
		c-0.1,0.4,0,0.8,0.3,1.1c0.2,0.2,0.4,0.3,0.6,0.3c0.2,0,0.4,0,0.6-0.1L361.2,57z"/>
</g>
<g>
	<path class="st2" d="M727.3,324.7c-0.1-0.6-0.6-1.2-1.2-1.4l-6.2-1.9l-1.9-6.2c-0.2-0.6-0.8-1.1-1.4-1.2c-0.7-0.1-1.4,0.2-1.7,0.7
		l-3.6,5.3l-6.5,0c-0.7,0-1.3,0.4-1.6,0.9c-0.3,0.6-0.2,1.3,0.1,1.8l4,5.3l-2,6.3c-0.2,0.6,0,1.3,0.5,1.8c0.3,0.3,0.6,0.4,1,0.5
		c0.3,0,0.6,0,0.9-0.1l6-2.1l5.1,3.8c0.2,0.2,0.5,0.3,0.8,0.3c0.4,0.1,0.7,0,1.1-0.2c0.6-0.3,1-0.9,1-1.6l-0.1-6.6l5.4-3.9
		C727.2,326,727.4,325.4,727.3,324.7z"/>
	<path class="st3" d="M717.9,337.6c-0.4-0.1-0.8-0.2-1.1-0.5l-4.8-3.6l-5.7,2c-0.4,0.1-0.8,0.2-1.2,0.1c-0.5-0.1-0.9-0.3-1.3-0.6
		c-0.7-0.6-0.9-1.6-0.6-2.5l1.9-6l-3.8-5.1c-0.5-0.7-0.6-1.7-0.2-2.5c0.4-0.8,1.2-1.3,2.2-1.3l6.2,0l3.4-5c0.5-0.8,1.5-1.2,2.4-1
		c0.9,0.1,1.7,0.8,2,1.7l1.8,5.8l5.9,1.8c0.9,0.3,1.5,1,1.7,1.9l0,0c0.2,0.9-0.2,1.8-0.9,2.3l-5.1,3.8l0.1,6.3
		c0,0.9-0.5,1.8-1.3,2.2C718.9,337.6,718.4,337.6,717.9,337.6z M712.2,332l5.4,4c0.3,0.3,0.8,0.3,1.2,0.1c0.4-0.2,0.6-0.6,0.6-1
		l-0.1-6.9l5.6-4.1c0.3-0.2,0.5-0.6,0.4-1c-0.1-0.4-0.4-0.7-0.8-0.9l-6.5-2l-2-6.5c-0.1-0.4-0.5-0.7-0.9-0.8
		c-0.4-0.1-0.9,0.1-1.1,0.5l-3.8,5.6l-6.8,0c-0.4,0-0.8,0.2-1,0.6c-0.2,0.4-0.2,0.8,0.1,1.1l4.2,5.6l-2.2,6.6
		c-0.1,0.4,0,0.8,0.3,1.1c0.2,0.2,0.4,0.3,0.6,0.3c0.2,0,0.4,0,0.6-0.1L712.2,332z"/>
</g>
<g>
	<path class="st2" d="M199.9,353.2c-0.3-0.6-0.9-1-1.6-1l-6.5-0.2l-3.4-5.4c-0.4-0.6-1-0.9-1.7-0.8c-0.7,0.1-1.3,0.5-1.5,1.2
		l-2.1,6.1l-6.3,1.7c-0.6,0.2-1.1,0.7-1.3,1.3c-0.1,0.6,0.1,1.3,0.6,1.7l5.2,4.1l-0.3,6.6c0,0.7,0.3,1.3,0.9,1.6
		c0.3,0.2,0.7,0.2,1.1,0.2c0.3,0,0.6-0.1,0.8-0.3l5.2-3.6l5.9,2.3c0.3,0.1,0.6,0.2,0.9,0.1c0.4,0,0.7-0.2,1-0.4
		c0.5-0.4,0.7-1.1,0.5-1.8l-1.8-6.4l4.1-5.2C200.1,354.5,200.1,353.8,199.9,353.2z"/>
	<path class="st3" d="M194.2,368c-0.4,0-0.8,0-1.2-0.2l-5.6-2.2l-4.9,3.4c-0.3,0.2-0.7,0.4-1.1,0.4c-0.5,0.1-1,0-1.4-0.3
		c-0.8-0.4-1.3-1.3-1.3-2.2l0.3-6.3l-5-3.9c-0.7-0.6-1-1.5-0.8-2.3c0.2-0.9,0.9-1.6,1.7-1.8l5.9-1.6l2-5.8c0.3-0.9,1.1-1.5,2-1.6
		c0.9-0.1,1.8,0.3,2.3,1.1l3.3,5.1l6.2,0.2c0.9,0,1.7,0.5,2.1,1.4l0,0c0.4,0.8,0.3,1.8-0.3,2.5l-3.9,5l1.7,6c0.3,0.9,0,1.8-0.7,2.4
		C195.1,367.8,194.7,368,194.2,368z M187.2,364.2l6.2,2.5c0.4,0.2,0.9,0.1,1.2-0.2c0.3-0.3,0.5-0.7,0.3-1.1l-1.9-6.7l4.3-5.5
		c0.3-0.3,0.3-0.8,0.1-1.1c-0.2-0.4-0.6-0.6-1-0.6l-6.8-0.2l-3.6-5.7c-0.2-0.4-0.7-0.6-1.1-0.5c-0.4,0.1-0.8,0.3-1,0.7l-2.2,6.4
		l-6.6,1.8c-0.4,0.1-0.7,0.4-0.8,0.8c-0.1,0.4,0.1,0.8,0.4,1.1l5.5,4.3l-0.3,6.9c0,0.4,0.2,0.8,0.6,1c0.2,0.1,0.4,0.2,0.7,0.1
		c0.2,0,0.4-0.1,0.5-0.2L187.2,364.2z"/>
</g>
<g>
	<path class="st2" d="M572,37.6c0.1-0.4-0.1-0.8-0.5-1.1l-3.4-2.5l0.1-4.1c0-0.4-0.2-0.8-0.6-1c-0.4-0.2-0.9-0.2-1.2,0.1l-3.3,2.5
		l-3.9-1.4c-0.4-0.1-0.9,0-1.2,0.2c-0.3,0.3-0.4,0.7-0.3,1.1l1.3,4.1l-2.6,3.4c-0.3,0.3-0.3,0.8-0.1,1.2c0.1,0.2,0.3,0.4,0.5,0.5
		c0.2,0.1,0.4,0.1,0.6,0.1l4.1,0l2.3,3.4c0.1,0.2,0.3,0.3,0.4,0.4c0.2,0.1,0.4,0.2,0.7,0.1c0.4-0.1,0.8-0.3,0.9-0.8l1.3-4l4.1-1.3
		C571.6,38.3,571.9,38,572,37.6z"/>
	<path class="st3" d="M563.6,43.4c-0.2-0.1-0.4-0.3-0.6-0.5l-2.2-3.2l-3.9,0c-0.3,0-0.5-0.1-0.8-0.2c-0.3-0.1-0.5-0.4-0.7-0.7
		c-0.3-0.5-0.2-1.2,0.1-1.6l2.4-3.2l-1.2-3.9c-0.2-0.6,0-1.2,0.4-1.6c0.4-0.4,1-0.5,1.6-0.3l3.7,1.3l3.1-2.3
		c0.5-0.4,1.1-0.4,1.7-0.1c0.5,0.3,0.9,0.8,0.8,1.4l-0.1,3.9l3.2,2.3c0.5,0.3,0.7,0.9,0.6,1.5l0,0c-0.1,0.6-0.5,1-1,1.2l-3.9,1.2
		l-1.3,3.8c-0.2,0.6-0.7,1-1.3,1C564.2,43.6,563.9,43.5,563.6,43.4z M561.3,38.8l2.4,3.6c0.2,0.2,0.4,0.4,0.7,0.3
		c0.3,0,0.5-0.2,0.6-0.5l1.4-4.2l4.3-1.3c0.3-0.1,0.4-0.3,0.5-0.5c0-0.3-0.1-0.5-0.3-0.7l-3.6-2.6l0.1-4.4c0-0.3-0.1-0.5-0.4-0.7
		c-0.3-0.1-0.6-0.1-0.8,0.1l-3.5,2.6l-4.2-1.4c-0.3-0.1-0.5,0-0.7,0.2c-0.2,0.2-0.3,0.4-0.2,0.7l1.3,4.3l-2.7,3.6
		c-0.2,0.2-0.2,0.5-0.1,0.7c0.1,0.1,0.2,0.2,0.3,0.3c0.1,0.1,0.2,0.1,0.4,0.1L561.3,38.8z"/>
</g>
<g>
	<path class="st2" d="M165.6,50.5c-0.7-1-1.9-1.6-3.2-1.5L150,50.5l-8-9.3c-0.8-1-2.2-1.4-3.5-1c-1.3,0.3-2.3,1.4-2.5,2.6l-2.3,12.1
		l-11.4,4.9c-1.2,0.5-2,1.6-2.1,2.9c-0.1,1.2,0.5,2.4,1.6,3.1l11,6.4l1.2,12.6c0.1,1.3,1,2.3,2.2,2.8c0.7,0.2,1.4,0.3,2.1,0.1
		c0.5-0.1,1.1-0.4,1.5-0.8l8.9-8.3l11.8,2.8c0.6,0.1,1.2,0.1,1.7,0c0.7-0.2,1.3-0.6,1.7-1.1c0.8-1,1-2.3,0.5-3.5L159.3,65l6.4-11
		C166.3,52.9,166.3,51.6,165.6,50.5z"/>
	<path class="st3" d="M158.9,80.1c-0.8,0.2-1.6,0.2-2.3,0l-11.2-2.7l-8.4,7.9c-0.5,0.5-1.2,0.9-2,1.1c-0.9,0.2-1.9,0.2-2.8-0.1
		c-1.7-0.6-2.8-2.1-3-3.8l-1.1-12l-10.5-6c-1.5-0.9-2.4-2.5-2.2-4.2c0.1-1.7,1.2-3.2,2.8-3.9l10.8-4.7l2.2-11.4
		c0.3-1.7,1.7-3.1,3.4-3.6c1.7-0.5,3.6,0.1,4.7,1.4l7.6,8.8l11.7-1.3c1.7-0.2,3.4,0.6,4.4,2l0,0c1,1.4,1,3.3,0.1,4.8l-6.1,10.5
		l5,10.9c0.7,1.6,0.5,3.5-0.7,4.8C160.6,79.4,159.8,79.9,158.9,80.1z M144.6,74.8l12.5,3c0.8,0.2,1.7-0.1,2.2-0.7
		c0.5-0.6,0.7-1.5,0.3-2.2l-5.5-12.1l6.7-11.6c0.4-0.7,0.4-1.5-0.1-2.2c-0.4-0.7-1.2-1-2-0.9l-13,1.5l-8.4-9.8
		c-0.5-0.6-1.4-0.9-2.2-0.7c-0.8,0.2-1.4,0.9-1.6,1.7l-2.4,12.7l-12,5.2c-0.8,0.3-1.3,1-1.3,1.8c-0.1,0.8,0.3,1.5,1,1.9l11.6,6.7
		l1.3,13.2c0.1,0.8,0.6,1.5,1.4,1.7c0.4,0.2,0.9,0.2,1.3,0.1c0.4-0.1,0.7-0.3,0.9-0.5L144.6,74.8z"/>
</g>
</svg>
