<?xml version="1.0" encoding="utf-8"?>
<!-- Generator: Adobe Illustrator 22.0.1, SVG Export Plug-In . SVG Version: 6.00 Build 0)  -->
<svg version="1.1" id="Calque_1" xmlns="http://www.w3.org/2000/svg" xmlns:xlink="http://www.w3.org/1999/xlink" x="0px" y="0px"
	 viewBox="0 0 200 200" style="enable-background:new 0 0 200 200;" xml:space="preserve">
<style type="text/css">
	.st0{fill:#FFFF92;}
	.st1{fill:#1D1D1B;}
</style>
<g>
	<path class="st0" d="M193.7,86c-1.5-4.3-5.3-7.5-10-8.2l-45-6.6l-19.6-40.5c-2.1-4.3-6.5-7-11.3-7c-4.9,0-9.2,2.7-11.3,7L77.1,71.4
		l-44.9,6.7c-4.6,0.7-8.5,3.9-9.9,8.2c-1.5,4.3-0.3,9.1,2.9,12.3l33,32.8l-7.6,45.7c-0.8,4.6,1.2,9.2,5.2,11.9
		c2.1,1.5,4.6,2.2,7.2,2.2c2.1,0,4.2-0.5,6-1.5l39.2-21.2l39.2,21c1.9,1,4,1.5,6,1.5c2.5,0,5.1-0.8,7.2-2.3
		c3.9-2.7,5.9-7.3,5.1-11.9l-7.7-45.6l32.9-32.9C194.1,95.1,195.2,90.4,193.7,86z"/>
	<path class="st1" d="M142.2,184.5c-2.9,0-5.7-0.7-8.2-2.1L97,162.6l-37,20c-2.4,1.4-5.3,2.1-8.2,2.1c-3.5,0-6.9-1-9.7-3
		c-5.4-3.7-8.1-9.9-7.1-16.3l7.2-43.4L10.8,90.8c-4.5-4.5-6-11-4-17c2.1-6,7.2-10.2,13.5-11.2l42.6-6.4l18.4-38.5
		c2.8-5.8,8.8-9.6,15.4-9.6c6.5,0,12.6,3.7,15.4,9.5l18.6,38.4l42.6,6.2c6.3,0.9,11.5,5.2,13.6,11.1l0,0c2.1,6,0.5,12.5-4,17
		l-31.3,31.3l7.3,43.3c1.1,6.4-1.6,12.6-7,16.4C149.1,183.4,145.8,184.5,142.2,184.5z M97,152.3l41.4,22.2c2.6,1.4,6.1,1.2,8.5-0.5
		c2.5-1.7,3.7-4.6,3.2-7.4l-8.1-47.9l34.5-34.6c2-2,2.7-5,1.8-7.7c-1-2.8-3.4-4.7-6.4-5.2l-47.3-6.9L104,21.6
		c-1.3-2.7-4.1-4.4-7.2-4.4c-3.1,0-5.9,1.7-7.2,4.4L69,64.4l-47.3,7.1c-3,0.4-5.4,2.4-6.3,5.2c-0.9,2.7-0.2,5.6,1.8,7.7l34.7,34.5
		l-7.9,47.9c-0.5,2.9,0.8,5.7,3.3,7.4c1.4,0.9,3,1.4,4.6,1.4c1.4,0,2.7-0.3,3.8-1L97,152.3z"/>
</g>
</svg>
